<svg version="1.1" id="Layer_1" xmlns="http://www.w3.org/2000/svg" xmlns:xlink="http://www.w3.org/1999/xlink" x="0px" y="0px"
	 width="100%" viewBox="0 0 512 512" enable-background="new 0 0 512 512" xml:space="preserve">
<path fill="#FFFFFF" opacity="1.000000" stroke="none" 
	d="
M1.000001,292.000000 
	C1.000000,195.044571 1.000000,98.089149 1.000000,1.066865 
	C171.543640,1.066865 342.087311,1.066865 513.000000,1.066865 
	C513.000000,49.354141 513.000000,97.709221 512.561218,146.531738 
	C503.370178,145.810242 494.592621,144.777771 485.876221,143.367294 
	C481.424957,142.647003 476.468719,142.239761 472.808594,139.969421 
	C462.257721,133.424881 460.597809,119.757629 473.629211,110.099670 
	C482.118500,103.807999 490.610138,97.519470 499.301056,91.081123 
	C488.375183,76.520805 477.686523,62.276577 466.898071,47.899399 
	C457.084045,55.205479 447.717987,62.300102 438.215454,69.206940 
	C432.416473,73.421860 425.974701,73.195190 420.081268,69.881866 
	C414.638947,66.822182 411.430389,61.639763 412.065399,55.131809 
	C413.265472,42.833092 414.846985,30.571589 416.291626,18.107960 
	C398.725739,15.619228 381.143250,13.128144 363.336151,10.605238 
	C362.481476,17.275763 361.906128,23.131281 360.943481,28.922411 
	C359.823730,35.658848 358.911926,42.506145 356.925690,49.004520 
	C353.883331,58.958340 341.416107,63.161285 332.948608,57.235374 
	C329.845795,55.063892 327.386444,51.835144 325.005096,48.797455 
	C318.849701,40.945564 312.901306,32.931412 306.903076,25.025293 
	C296.895721,32.572620 287.237183,39.856876 277.163330,47.100548 
	C273.151337,46.706451 269.537231,45.930614 265.961334,46.078636 
	C255.250916,46.521992 244.517670,46.965321 233.863480,48.079426 
	C219.805603,49.549450 206.496323,53.928604 193.615845,59.730602 
	C170.715698,70.045982 151.206223,84.726593 135.279922,104.190262 
	C124.510941,117.351105 116.011391,131.808716 109.995728,147.699753 
	C103.133568,165.826889 99.456551,184.553345 99.382309,203.999512 
	C95.476746,203.999771 92.022652,203.999771 88.428963,203.999771 
	C86.421074,213.585220 84.790215,222.688431 82.560410,231.642502 
	C80.359291,240.481369 75.384567,242.266068 67.845512,237.234222 
	C61.094643,232.728439 54.553585,227.907547 47.783825,223.431580 
	C46.730152,222.734909 44.300831,222.463150 43.604034,223.133881 
	C34.886452,231.525345 26.371153,240.126968 17.911600,248.567337 
	C23.682638,257.065002 29.346851,264.831879 34.372425,272.992065 
	C38.194111,279.197510 35.667824,284.412170 28.592442,286.021423 
	C19.416376,288.108429 10.199377,290.015472 1.000001,292.000000 
M65.954865,75.472847 
	C65.241264,75.082489 64.481461,74.757675 63.820988,74.291977 
	C53.585629,67.075012 43.501881,59.631180 33.077938,52.698616 
	C28.024107,49.337513 23.265146,50.730854 20.254480,55.382797 
	C17.593645,59.494194 18.807749,65.445854 23.098007,68.526894 
	C28.513149,72.415771 34.052551,76.131256 39.482758,79.999588 
	C49.161564,86.894501 58.697411,93.995453 68.492485,100.719719 
	C74.062920,104.543800 80.261963,103.669601 82.889664,99.302719 
	C85.828743,94.418365 84.072060,88.624741 78.721634,84.923111 
	C74.567261,82.048950 70.552521,78.972946 65.954865,75.472847 
M60.344494,136.902588 
	C43.324593,141.024719 26.273664,145.025024 9.304563,149.346634 
	C4.501172,150.569931 1.804252,156.478989 3.135414,161.273331 
	C4.451719,166.014145 9.323663,168.423279 14.747595,167.099579 
	C17.905071,166.328995 21.116318,165.775604 24.266434,164.978500 
	C38.579784,161.356644 52.872940,157.654861 67.189400,154.045441 
	C71.334366,153.000443 73.773659,150.644928 74.003639,146.241898 
	C74.411270,138.437958 70.161995,135.203644 60.344494,136.902588 
M116.080917,30.265221 
	C114.612206,23.933828 113.330849,17.551504 111.627029,11.284026 
	C109.529449,3.568093 104.535622,0.282199 98.487038,2.208174 
	C93.543663,3.782232 91.895813,8.985719 93.747299,16.431656 
	C96.254791,26.515831 98.512756,36.662601 101.070892,46.733459 
	C102.905174,53.954655 104.772728,61.191891 107.171143,68.236176 
	C108.622246,72.498146 114.278961,74.303635 118.763763,72.702126 
	C122.755165,71.276802 125.049278,67.471931 124.085762,63.223373 
	C121.645271,52.462162 119.039406,41.738461 116.080917,30.265221 
z"/>
<path fill="#FFFFFF" opacity="1.000000" stroke="none" 
	d="
M513.000000,155.000000 
	C513.000000,274.244354 513.000000,393.488678 513.000000,513.000000 
	C436.979309,513.000000 360.958313,513.000000 284.517273,512.650757 
	C287.193939,510.237488 290.539337,508.463043 293.341644,506.056274 
	C302.405060,498.272156 303.360992,487.716400 302.821442,476.298096 
	C302.811707,470.353302 302.797638,464.854218 302.853088,458.859650 
	C302.906525,452.487061 302.890533,446.609985 303.107666,440.467346 
	C312.896271,437.488586 320.020660,425.343201 320.069763,417.598724 
	C320.163330,402.844910 319.874084,388.020050 321.237305,373.363617 
	C322.425842,360.585754 328.717957,349.641022 339.359039,341.981201 
	C357.023956,329.265381 374.018616,315.967896 386.712494,297.877075 
	C396.456970,283.989594 404.273560,269.230408 409.491211,253.125122 
	C416.535797,261.914856 423.299591,270.546722 430.033966,279.201447 
	C431.756439,281.415009 432.976318,283.835419 436.514160,281.095520 
	C449.550934,270.999115 462.783325,261.155304 476.182800,251.034714 
	C475.225006,249.603653 474.361359,248.242905 473.428772,246.931168 
	C466.900513,237.748978 460.322693,228.601822 453.830170,219.394485 
	C447.448883,210.344910 457.318787,194.918106 468.113892,196.040649 
	C480.601318,197.339157 493.057526,198.937988 506.013031,200.463623 
	C507.321045,191.006226 508.584076,181.297195 510.033569,171.616058 
	C510.866333,166.054016 512.001160,160.537186 513.000000,155.000000 
M451.520813,422.015106 
	C453.419678,423.569305 455.234894,425.242401 457.236084,426.651276 
	C460.658752,429.060822 466.676788,428.174896 469.465515,425.002533 
	C472.152496,421.945892 472.003906,415.688263 469.111572,412.648956 
	C467.393768,410.843903 465.703888,408.981323 463.792419,407.396698 
	C452.709656,398.209076 441.510101,389.161804 430.466949,379.927246 
	C425.814880,376.037079 419.175751,375.828583 416.057190,379.845337 
	C412.470947,384.464447 413.722778,390.290436 418.627014,394.318970 
	C429.516296,403.263916 440.223633,412.430389 451.520813,422.015106 
M432.317963,327.240448 
	C426.031372,329.601044 424.043488,332.854919 425.007690,339.206329 
	C425.551544,342.788849 430.470734,345.974701 435.694946,345.988312 
	C448.983704,346.022888 462.272888,346.050964 475.561340,345.977386 
	C481.914429,345.942200 486.404205,342.753235 486.994019,338.153381 
	C487.831970,331.618347 483.654877,327.057556 476.518707,327.023987 
	C462.067657,326.955963 447.615906,327.023102 432.317963,327.240448 
M372.000000,411.624634 
	C372.000122,424.760345 371.939453,437.896515 372.031067,451.031586 
	C372.066406,456.095886 376.304169,460.084930 381.169830,459.998932 
	C385.739075,459.918243 389.950531,456.288452 389.970367,452.081787 
	C390.043365,436.618561 390.072540,421.154205 389.956909,405.691498 
	C389.918671,400.576080 385.561188,397.150787 380.488037,397.808472 
	C373.807068,398.674652 372.001556,401.410004 372.000000,411.624634 
z"/>
<path fill="#1DC8EA" opacity="1.000000" stroke="none" 
	d="
M513.000000,154.555832 
	C512.001160,160.537186 510.866333,166.054016 510.033569,171.616058 
	C508.584076,181.297195 507.321045,191.006226 506.013031,200.463623 
	C493.057526,198.937988 480.601318,197.339157 468.113892,196.040649 
	C457.318787,194.918106 447.448883,210.344910 453.830170,219.394485 
	C460.322693,228.601822 466.900513,237.748978 473.428772,246.931168 
	C474.361359,248.242905 475.225006,249.603653 476.182800,251.034714 
	C462.783325,261.155304 449.550934,270.999115 436.514160,281.095520 
	C432.976318,283.835419 431.756439,281.415009 430.033966,279.201447 
	C423.299591,270.546722 416.535797,261.914856 409.413116,252.758636 
	C400.787231,244.101700 385.911224,248.140457 382.202911,259.719757 
	C380.997955,263.482178 380.604065,267.519073 379.994995,271.454559 
	C378.684509,279.923035 377.475189,288.407196 376.192200,297.103485 
	C358.928955,294.642548 342.310486,292.276703 325.695251,289.888397 
	C325.233368,289.821991 324.806061,289.514801 324.132904,289.218933 
	C325.611176,279.022797 327.457703,268.867889 328.398010,258.629791 
	C328.820435,254.030853 328.566193,248.724457 326.639801,244.682327 
	C321.852356,234.636917 309.617889,232.751984 299.755035,239.929764 
	C291.016876,246.289047 282.437195,252.866119 273.409760,259.630127 
	C262.799774,245.482712 252.363007,231.566269 241.843781,217.539886 
	C243.222488,216.469223 244.257965,215.643906 245.315216,214.847504 
	C253.161926,208.936447 261.050018,203.079529 268.851044,197.108841 
	C275.173645,192.269653 277.623993,185.705750 275.660858,178.099503 
	C273.667694,170.376709 267.887726,166.395462 260.203278,165.089447 
	C257.416504,164.615814 254.594620,164.352539 251.795792,163.944977 
	C243.651352,162.759003 235.510468,161.548615 227.168213,160.318298 
	C229.709427,142.607452 232.155319,125.560852 234.643524,108.219284 
	C242.760101,109.365982 250.296738,110.524971 257.860382,111.467072 
	C263.131073,112.123566 268.513702,113.295532 273.715363,112.816193 
	C287.222870,111.571472 293.047760,95.943092 284.572571,84.162567 
	C278.165314,75.256470 271.444641,66.575859 264.818909,57.735481 
	C269.211456,54.088394 273.395050,50.614765 277.578674,47.141132 
	C287.237183,39.856876 296.895721,32.572620 306.903076,25.025293 
	C312.901306,32.931412 318.849701,40.945564 325.005096,48.797455 
	C327.386444,51.835144 329.845795,55.063892 332.948608,57.235374 
	C341.416107,63.161285 353.883331,58.958340 356.925690,49.004520 
	C358.911926,42.506145 359.823730,35.658848 360.943481,28.922411 
	C361.906128,23.131281 362.481476,17.275763 363.336151,10.605238 
	C381.143250,13.128144 398.725739,15.619228 416.291626,18.107960 
	C414.846985,30.571589 413.265472,42.833092 412.065399,55.131809 
	C411.430389,61.639763 414.638947,66.822182 420.081268,69.881866 
	C425.974701,73.195190 432.416473,73.421860 438.215454,69.206940 
	C447.717987,62.300102 457.084045,55.205479 466.898071,47.899399 
	C477.686523,62.276577 488.375183,76.520805 499.301056,91.081123 
	C490.610138,97.519470 482.118500,103.807999 473.629211,110.099670 
	C460.597809,119.757629 462.257721,133.424881 472.808594,139.969421 
	C476.468719,142.239761 481.424957,142.647003 485.876221,143.367294 
	C494.592621,144.777771 503.370178,145.810242 512.561218,146.999573 
	C513.000000,149.370560 513.000000,151.741104 513.000000,154.555832 
M371.087280,93.015221 
	C368.095123,93.060867 365.062744,92.804932 362.116974,93.198067 
	C326.354553,97.970718 302.477753,131.974945 310.008331,167.289505 
	C317.466614,202.265030 353.740692,223.546783 388.220245,212.890472 
	C399.317993,209.460571 409.262482,203.861115 416.748016,193.664230 
	C417.266754,192.839233 417.728027,191.970901 418.312836,191.195740 
	C428.138031,178.172745 432.721924,163.399658 430.774048,147.310364 
	C428.927277,132.056229 421.928894,119.080101 410.248962,108.629990 
	C399.265594,98.803139 386.452637,94.106110 371.087280,93.015221 
z"/>
<path fill="#FFFFFF" opacity="1.000000" stroke="none" 
	d="
M233.000000,513.000000 
	C155.747864,513.000000 78.495720,513.000000 1.000000,513.000000 
	C1.000000,451.645996 1.000000,390.291656 1.360054,328.622559 
	C2.509348,328.535889 3.287579,328.816803 4.089527,328.983856 
	C12.338850,330.702209 20.644653,332.185333 28.828327,334.172241 
	C36.047985,335.925110 38.133701,341.648102 34.079174,347.794556 
	C31.341976,351.943970 28.353971,355.927277 25.578697,360.052521 
	C23.025179,363.848083 20.606012,367.734070 18.030821,371.730469 
	C26.468634,380.098480 34.566231,388.017639 42.513359,396.085052 
	C44.621502,398.225128 46.150913,398.018890 48.470757,396.365753 
	C55.219460,391.556580 62.112198,386.942749 69.050499,382.408478 
	C75.164078,378.413147 79.875687,380.116608 82.095413,386.947815 
	C82.501617,388.197876 82.732071,389.506958 83.013611,390.795349 
	C84.836555,399.137634 86.651176,407.481689 88.446861,415.725769 
	C100.777107,415.725769 112.551369,415.725769 124.539192,415.725769 
	C126.390610,406.795868 128.296356,398.102814 129.974716,389.366119 
	C131.600677,380.902100 137.569794,378.133453 144.602203,382.822083 
	C151.221893,387.235535 157.929001,391.538422 164.318481,396.267181 
	C167.188019,398.390839 168.809967,397.793457 171.036438,395.541992 
	C178.881454,387.609131 186.887894,379.835876 195.036942,372.379150 
	C195.493668,374.342102 195.956573,375.926758 195.965683,377.514008 
	C196.029404,388.641846 196.208374,399.775177 195.946716,410.897217 
	C195.618271,424.857391 200.525192,435.455444 213.991959,441.517151 
	C214.059052,447.756744 214.121765,453.532318 214.145874,459.754700 
	C214.101639,465.752960 214.095993,471.304382 214.060516,477.330627 
	C214.020615,479.631134 214.088150,481.461151 213.987961,483.281921 
	C213.257401,496.558441 218.712570,505.942108 231.224854,511.001434 
	C231.964935,511.300690 232.414978,512.317261 233.000000,513.000000 
z"/>
<path fill="#C9DFFF" opacity="1.000000" stroke="none" 
	d="
M194.833099,372.002075 
	C186.887894,379.835876 178.881454,387.609131 171.036438,395.541992 
	C168.809967,397.793457 167.188019,398.390839 164.318481,396.267181 
	C157.929001,391.538422 151.221893,387.235535 144.602203,382.822083 
	C137.569794,378.133453 131.600677,380.902100 129.974716,389.366119 
	C128.296356,398.102814 126.390610,406.795868 124.539192,415.725769 
	C112.551369,415.725769 100.777107,415.725769 88.446861,415.725769 
	C86.651176,407.481689 84.836555,399.137634 83.013611,390.795349 
	C82.732071,389.506958 82.501617,388.197876 82.095413,386.947815 
	C79.875687,380.116608 75.164078,378.413147 69.050499,382.408478 
	C62.112198,386.942749 55.219460,391.556580 48.470757,396.365753 
	C46.150913,398.018890 44.621502,398.225128 42.513359,396.085052 
	C34.566231,388.017639 26.468634,380.098480 18.030821,371.730469 
	C20.606012,367.734070 23.025179,363.848083 25.578697,360.052521 
	C28.353971,355.927277 31.341976,351.943970 34.079174,347.794556 
	C38.133701,341.648102 36.047985,335.925110 28.828327,334.172241 
	C20.644653,332.185333 12.338850,330.702209 4.089527,328.983856 
	C3.287579,328.816803 2.509348,328.535889 1.360054,328.153931 
	C1.000000,316.312439 1.000000,304.624878 1.000001,292.468658 
	C10.199377,290.015472 19.416376,288.108429 28.592442,286.021423 
	C35.667824,284.412170 38.194111,279.197510 34.372425,272.992065 
	C29.346851,264.831879 23.682638,257.065002 17.911600,248.567337 
	C26.371153,240.126968 34.886452,231.525345 43.604034,223.133881 
	C44.300831,222.463150 46.730152,222.734909 47.783825,223.431580 
	C54.553585,227.907547 61.094643,232.728439 67.845512,237.234222 
	C75.384567,242.266068 80.359291,240.481369 82.560410,231.642502 
	C84.790215,222.688431 86.421074,213.585220 88.428963,203.999771 
	C92.022652,203.999771 95.476746,203.999771 99.450706,204.459259 
	C100.042465,219.098648 101.784966,233.046127 105.814262,246.670670 
	C107.821564,253.458160 109.864769,260.235046 111.437996,267.010681 
	C95.509506,266.204681 83.356819,272.364594 73.987709,284.518768 
	C67.222115,293.295532 65.266350,303.278564 65.970825,314.090179 
	C66.727074,325.696442 71.955376,335.058868 80.412865,342.600433 
	C89.389542,350.604919 100.137909,353.451080 112.145302,353.097168 
	C128.768845,352.607208 147.121063,337.387695 150.404572,321.023834 
	C158.900436,327.319244 167.134506,333.435272 175.214157,339.748932 
	C178.459335,342.284821 181.760010,344.932007 184.345001,348.093109 
	C190.016571,355.028748 194.906723,362.472565 194.833099,372.002075 
z"/>
<path fill="#EBEBEB" opacity="1.000000" stroke="none" 
	d="
M233.468658,513.000000 
	C232.414978,512.317261 231.964935,511.300690 231.224854,511.001434 
	C218.712570,505.942108 213.257401,496.558441 213.987961,483.281921 
	C214.088150,481.461151 214.020615,479.631134 214.518402,477.389954 
	C230.975632,476.994904 246.945297,477.059326 262.914703,477.022186 
	C276.215637,476.991272 289.516327,476.841156 302.817108,476.743835 
	C303.360992,487.716400 302.405060,498.272156 293.341644,506.056274 
	C290.539337,508.463043 287.193939,510.237488 284.048584,512.650757 
	C267.312439,513.000000 250.624878,513.000000 233.468658,513.000000 
z"/>
<path fill="#FFB41F" opacity="1.000000" stroke="none" 
	d="
M111.891731,267.016724 
	C109.864769,260.235046 107.821564,253.458160 105.814262,246.670670 
	C101.784966,233.046127 100.042465,219.098648 99.902176,204.459000 
	C99.456551,184.553345 103.133568,165.826889 109.995728,147.699753 
	C116.011391,131.808716 124.510941,117.351105 135.279922,104.190262 
	C151.206223,84.726593 170.715698,70.045982 193.615845,59.730602 
	C206.496323,53.928604 219.805603,49.549450 233.863480,48.079426 
	C244.517670,46.965321 255.250916,46.521992 265.961334,46.078636 
	C269.537231,45.930614 273.151337,46.706451 277.163330,47.100552 
	C273.395050,50.614765 269.211456,54.088394 264.818909,57.735481 
	C271.444641,66.575859 278.165314,75.256470 284.572571,84.162567 
	C293.047760,95.943092 287.222870,111.571472 273.715363,112.816193 
	C268.513702,113.295532 263.131073,112.123566 257.860382,111.467072 
	C250.296738,110.524971 242.760101,109.365982 234.643524,108.219284 
	C232.155319,125.560852 229.709427,142.607452 227.168213,160.318298 
	C235.510468,161.548615 243.651352,162.759003 251.795792,163.944977 
	C254.594620,164.352539 257.416504,164.615814 260.203278,165.089447 
	C267.887726,166.395462 273.667694,170.376709 275.660858,178.099503 
	C277.623993,185.705750 275.173645,192.269653 268.851044,197.108841 
	C261.050018,203.079529 253.161926,208.936447 245.315216,214.847504 
	C244.257965,215.643906 243.222488,216.469223 241.843781,217.539886 
	C252.363007,231.566269 262.799774,245.482712 273.409760,259.630127 
	C282.437195,252.866119 291.016876,246.289047 299.755035,239.929764 
	C309.617889,232.751984 321.852356,234.636917 326.639801,244.682327 
	C328.566193,248.724457 328.820435,254.030853 328.398010,258.629791 
	C327.457703,268.867889 325.611176,279.022797 324.132904,289.218933 
	C324.806061,289.514801 325.233368,289.821991 325.695251,289.888397 
	C342.310486,292.276703 358.928955,294.642548 376.192200,297.103485 
	C377.475189,288.407196 378.684509,279.923035 379.994995,271.454559 
	C380.604065,267.519073 380.997955,263.482178 382.202911,259.719757 
	C385.911224,248.140457 400.787231,244.101700 409.121399,252.609283 
	C404.273560,269.230408 396.456970,283.989594 386.712494,297.877075 
	C374.018616,315.967896 357.023956,329.265381 339.359039,341.981201 
	C328.717957,349.641022 322.425842,360.585754 321.237305,373.363617 
	C319.874084,388.020050 320.163330,402.844910 320.069763,417.598724 
	C320.020660,425.343201 312.896271,437.488586 302.682465,440.474548 
	C296.241821,441.155914 290.457123,441.943115 284.677612,441.906891 
	C261.113403,441.759338 237.550766,441.359802 213.987564,441.053101 
	C200.525192,435.455444 195.618271,424.857391 195.946716,410.897217 
	C196.208374,399.775177 196.029404,388.641846 195.965683,377.514008 
	C195.956573,375.926758 195.493668,374.342102 195.036957,372.379150 
	C194.906723,362.472565 190.016571,355.028748 184.345001,348.093109 
	C181.760010,344.932007 178.459335,342.284821 175.214157,339.748932 
	C167.134506,333.435272 158.900436,327.319244 150.262573,320.719238 
	C143.868546,313.896118 137.105789,308.051392 132.206665,300.925415 
	C124.756546,290.088989 118.598526,278.364197 111.891731,267.016724 
M226.041199,326.429352 
	C239.820267,336.759430 247.681046,350.358765 249.100342,367.646484 
	C249.223419,369.145569 250.648102,371.684753 251.640442,371.771606 
	C256.545105,372.200684 261.507721,371.966919 267.752563,371.966919 
	C266.056702,363.402405 265.321259,355.449188 262.864502,348.069000 
	C255.221649,325.109344 238.828445,310.432068 216.812698,301.423737 
	C193.378616,291.835083 176.465485,275.073639 164.577026,253.051010 
	C155.174255,235.633011 151.856949,216.859360 152.991577,197.197052 
	C153.826889,182.721497 157.795471,169.045425 164.511292,156.336273 
	C172.752930,140.739594 183.643463,127.262863 198.663467,117.466522 
	C199.746414,116.760216 200.741302,114.058907 200.234924,113.097336 
	C198.024750,108.900398 195.244751,105.003540 192.703384,101.047180 
	C180.906586,107.251991 169.242523,117.936867 158.460068,132.969009 
	C138.655685,160.578918 131.152420,191.300629 137.039368,224.791336 
	C144.315765,266.186584 167.091156,296.360260 204.649719,315.325195 
	C211.610321,318.839905 218.534973,322.425842 226.041199,326.429352 
M267.001221,399.524475 
	C267.001068,397.695953 266.826202,395.847046 267.036926,394.043152 
	C267.484314,390.213287 266.195099,388.495026 262.096893,388.938263 
	C259.139374,389.258148 256.112579,389.127502 253.129318,388.965393 
	C250.264771,388.809753 248.855240,389.609680 248.953598,392.825653 
	C249.146576,399.136414 249.071167,405.457977 248.985855,411.773468 
	C248.946564,414.683228 250.070953,416.095917 253.089249,416.009033 
	C256.577118,415.908630 260.074036,415.883301 263.559601,416.018372 
	C266.175659,416.119781 267.105896,415.026093 267.028748,412.483948 
	C266.907806,408.498230 266.999542,404.506012 267.001221,399.524475 
z"/>
<path fill="#FFAA00" opacity="1.000000" stroke="none" 
	d="
M66.215286,75.729752 
	C70.552521,78.972946 74.567261,82.048950 78.721634,84.923111 
	C84.072060,88.624741 85.828743,94.418365 82.889664,99.302719 
	C80.261963,103.669601 74.062920,104.543800 68.492485,100.719719 
	C58.697411,93.995453 49.161564,86.894501 39.482758,79.999588 
	C34.052551,76.131256 28.513149,72.415771 23.098007,68.526894 
	C18.807749,65.445854 17.593645,59.494194 20.254480,55.382797 
	C23.265146,50.730854 28.024107,49.337513 33.077938,52.698616 
	C43.501881,59.631180 53.585629,67.075012 63.820988,74.291977 
	C64.481461,74.757675 65.241264,75.082489 66.215286,75.729752 
z"/>
<path fill="#FFAA00" opacity="1.000000" stroke="none" 
	d="
M60.700157,136.659073 
	C70.161995,135.203644 74.411270,138.437958 74.003639,146.241898 
	C73.773659,150.644928 71.334366,153.000443 67.189400,154.045441 
	C52.872940,157.654861 38.579784,161.356644 24.266434,164.978500 
	C21.116318,165.775604 17.905071,166.328995 14.747595,167.099579 
	C9.323663,168.423279 4.451719,166.014145 3.135414,161.273331 
	C1.804252,156.478989 4.501172,150.569931 9.304563,149.346634 
	C26.273664,145.025024 43.324593,141.024719 60.700157,136.659073 
z"/>
<path fill="#FFAA00" opacity="1.000000" stroke="none" 
	d="
M116.290344,30.632479 
	C119.039406,41.738461 121.645271,52.462162 124.085762,63.223373 
	C125.049278,67.471931 122.755165,71.276802 118.763763,72.702126 
	C114.278961,74.303635 108.622246,72.498146 107.171143,68.236176 
	C104.772728,61.191891 102.905174,53.954655 101.070892,46.733459 
	C98.512756,36.662601 96.254791,26.515831 93.747299,16.431656 
	C91.895813,8.985719 93.543663,3.782232 98.487038,2.208174 
	C104.535622,0.282199 109.529449,3.568093 111.627029,11.284026 
	C113.330849,17.551504 114.612206,23.933828 116.290344,30.632479 
z"/>
<path fill="#A1A1A1" opacity="1.000000" stroke="none" 
	d="
M302.821442,476.298096 
	C289.516327,476.841156 276.215637,476.991272 262.914703,477.022186 
	C246.945297,477.059326 230.975632,476.994904 214.548218,476.915161 
	C214.095993,471.304382 214.101639,465.752960 214.596039,459.705627 
	C244.317734,459.258209 273.550659,459.306671 302.783600,459.355133 
	C302.797638,464.854218 302.811707,470.353302 302.821442,476.298096 
z"/>
<path fill="#EBEBEB" opacity="1.000000" stroke="none" 
	d="
M302.853088,458.859650 
	C273.550659,459.306671 244.317734,459.258209 214.634628,459.258820 
	C214.121765,453.532318 214.059052,447.756744 213.991959,441.517151 
	C237.550766,441.359802 261.113403,441.759338 284.677612,441.906891 
	C290.457123,441.943115 296.241821,441.155914 302.449341,440.740082 
	C302.890533,446.609985 302.906525,452.487061 302.853088,458.859650 
z"/>
<path fill="#FFAA00" opacity="1.000000" stroke="none" 
	d="
M451.263000,421.760834 
	C440.223633,412.430389 429.516296,403.263916 418.627014,394.318970 
	C413.722778,390.290436 412.470947,384.464447 416.057190,379.845337 
	C419.175751,375.828583 425.814880,376.037079 430.466949,379.927246 
	C441.510101,389.161804 452.709656,398.209076 463.792419,407.396698 
	C465.703888,408.981323 467.393768,410.843903 469.111572,412.648956 
	C472.003906,415.688263 472.152496,421.945892 469.465515,425.002533 
	C466.676788,428.174896 460.658752,429.060822 457.236084,426.651276 
	C455.234894,425.242401 453.419678,423.569305 451.263000,421.760834 
z"/>
<path fill="#FFAA00" opacity="1.000000" stroke="none" 
	d="
M432.741211,327.137482 
	C447.615906,327.023102 462.067657,326.955963 476.518707,327.023987 
	C483.654877,327.057556 487.831970,331.618347 486.994019,338.153381 
	C486.404205,342.753235 481.914429,345.942200 475.561340,345.977386 
	C462.272888,346.050964 448.983704,346.022888 435.694946,345.988312 
	C430.470734,345.974701 425.551544,342.788849 425.007690,339.206329 
	C424.043488,332.854919 426.031372,329.601044 432.741211,327.137482 
z"/>
<path fill="#FFAA00" opacity="1.000000" stroke="none" 
	d="
M372.000000,411.146210 
	C372.001556,401.410004 373.807068,398.674652 380.488037,397.808472 
	C385.561188,397.150787 389.918671,400.576080 389.956909,405.691498 
	C390.072540,421.154205 390.043365,436.618561 389.970367,452.081787 
	C389.950531,456.288452 385.739075,459.918243 381.169830,459.998932 
	C376.304169,460.084930 372.066406,456.095886 372.031067,451.031586 
	C371.939453,437.896515 372.000122,424.760345 372.000000,411.146210 
z"/>
<path fill="#FEB420" opacity="1.000000" stroke="none" 
	d="
M416.166626,194.000427 
	C409.262482,203.861115 399.317993,209.460571 388.220245,212.890472 
	C353.740692,223.546783 317.466614,202.265030 310.008331,167.289505 
	C302.477753,131.974945 326.354553,97.970718 362.116974,93.198067 
	C365.062744,92.804932 368.095123,93.060867 371.680725,93.394295 
	C373.127899,94.960114 373.836182,96.292732 374.857666,97.311234 
	C386.015320,108.436516 394.294159,121.617973 401.076660,135.635452 
	C409.967010,154.009201 415.396210,173.444809 416.166626,194.000427 
z"/>
<path fill="#FFFFFF" opacity="1.000000" stroke="none" 
	d="
M416.457336,193.832336 
	C415.396210,173.444809 409.967010,154.009201 401.076660,135.635452 
	C394.294159,121.617973 386.015320,108.436516 374.857666,97.311234 
	C373.836182,96.292732 373.127899,94.960114 372.136963,93.469780 
	C386.452637,94.106110 399.265594,98.803139 410.248962,108.629990 
	C421.928894,119.080101 428.927277,132.056229 430.774048,147.310364 
	C432.721924,163.399658 428.138031,178.172745 418.312836,191.195740 
	C417.728027,191.970901 417.266754,192.839233 416.457336,193.832336 
z"/>
<path fill="#FFFFFF" opacity="1.000000" stroke="none" 
	d="
M111.437996,267.010681 
	C118.598526,278.364197 124.756546,290.088989 132.206665,300.925415 
	C137.105789,308.051392 143.868546,313.896118 149.938766,320.619202 
	C147.121063,337.387695 128.768845,352.607208 112.145302,353.097168 
	C100.137909,353.451080 89.389542,350.604919 80.412865,342.600433 
	C71.955376,335.058868 66.727074,325.696442 65.970825,314.090179 
	C65.266350,303.278564 67.222115,293.295532 73.987709,284.518768 
	C83.356819,272.364594 95.509506,266.204681 111.437996,267.010681 
z"/>
<path fill="#FFAA00" opacity="1.000000" stroke="none" 
	d="
M225.758698,326.204132 
	C218.534973,322.425842 211.610321,318.839905 204.649719,315.325195 
	C167.091156,296.360260 144.315765,266.186584 137.039368,224.791336 
	C131.152420,191.300629 138.655685,160.578918 158.460068,132.969009 
	C169.242523,117.936867 180.906586,107.251991 192.703384,101.047180 
	C195.244751,105.003540 198.024750,108.900398 200.234924,113.097336 
	C200.741302,114.058907 199.746414,116.760216 198.663467,117.466522 
	C183.643463,127.262863 172.752930,140.739594 164.511292,156.336273 
	C157.795471,169.045425 153.826889,182.721497 152.991577,197.197052 
	C151.856949,216.859360 155.174255,235.633011 164.577026,253.051010 
	C176.465485,275.073639 193.378616,291.835083 216.812698,301.423737 
	C238.828445,310.432068 255.221649,325.109344 262.864502,348.069000 
	C265.321259,355.449188 266.056702,363.402405 267.752563,371.966919 
	C261.507721,371.966919 256.545105,372.200684 251.640442,371.771606 
	C250.648102,371.684753 249.223419,369.145569 249.100342,367.646484 
	C247.681046,350.358765 239.820267,336.759430 225.758698,326.204132 
z"/>
<path fill="#FFAA01" opacity="1.000000" stroke="none" 
	d="
M267.001221,400.020508 
	C266.999542,404.506012 266.907806,408.498230 267.028748,412.483948 
	C267.105896,415.026093 266.175659,416.119781 263.559601,416.018372 
	C260.074036,415.883301 256.577118,415.908630 253.089249,416.009033 
	C250.070953,416.095917 248.946564,414.683228 248.985855,411.773468 
	C249.071167,405.457977 249.146576,399.136414 248.953598,392.825653 
	C248.855240,389.609680 250.264771,388.809753 253.129318,388.965393 
	C256.112579,389.127502 259.139374,389.258148 262.096893,388.938263 
	C266.195099,388.495026 267.484314,390.213287 267.036926,394.043152 
	C266.826202,395.847046 267.001068,397.695953 267.001221,400.020508 
z"/>
</svg>